<svg width="443" height="79" viewBox="0 0 443 79" fill="none" xmlns="http://www.w3.org/2000/svg">
<path d="M12.0401 59.75C8.26514 59.75 5.35264 58.675 3.30264 56.525C1.25264 54.35 0.227637 51.4625 0.227637 47.8625C0.227637 44.9875 0.802637 42.125 1.95264 39.275C3.10264 36.425 4.66514 33.8375 6.64014 31.5125C8.64014 29.1625 10.9276 27.2875 13.5026 25.8875C16.0776 24.4625 18.8026 23.75 21.6776 23.75C23.8526 23.75 25.7276 24.15 27.3026 24.95C28.9026 25.75 30.1276 26.75 30.9776 27.95C31.8526 29.15 32.2901 30.35 32.2901 31.55C32.2901 33.1 31.8151 34.35 30.8651 35.3C29.9401 36.25 28.7901 36.725 27.4151 36.725C26.2151 36.725 25.1276 36.3625 24.1526 35.6375C23.1776 34.9125 22.6901 33.7875 22.6901 32.2625C22.6901 30.9375 23.1401 29.825 24.0401 28.925C24.9651 28 26.0651 27.5375 27.3401 27.5375C28.1651 27.5375 28.9526 27.675 29.7026 27.95C30.4526 28.225 31.0526 28.6625 31.5026 29.2625C31.9776 29.8375 32.2151 30.6 32.2151 31.55H32.1026C32.1026 30.375 31.6901 29.225 30.8651 28.1C30.0651 26.975 28.9901 26.05 27.6401 25.325C26.2901 24.575 24.7901 24.2 23.1401 24.2C21.3401 24.2 19.6526 24.8625 18.0776 26.1875C16.5026 27.4875 15.0901 29.2125 13.8401 31.3625C12.6151 33.5125 11.5526 35.85 10.6526 38.375C9.77764 40.875 9.10264 43.35 8.62764 45.8C8.17764 48.25 7.95264 50.4 7.95264 52.25C7.95264 54.35 8.37764 56.05 9.22764 57.35C10.1026 58.65 11.4401 59.3 13.2401 59.3C15.4651 59.3 17.5276 58.825 19.4276 57.875C21.3276 56.925 23.0401 55.6875 24.5651 54.1625C26.0901 52.6125 27.3901 50.9625 28.4651 49.2125L28.6151 49.2875C27.5401 51.0875 26.2026 52.7875 24.6026 54.3875C23.0276 55.9875 21.1901 57.2875 19.0901 58.2875C17.0151 59.2625 14.6651 59.75 12.0401 59.75ZM44.8837 59.75C42.6587 59.75 41.0087 59.2875 39.9337 58.3625C38.8837 57.4375 38.3587 56.225 38.3587 54.725C38.3587 54.075 38.4087 53.4875 38.5087 52.9625C38.6337 52.4125 38.7462 51.9625 38.8462 51.6125L51.9712 2.9375H45.2587V2.75H60.2212L45.7087 56.5625C45.6587 56.7625 45.6212 56.975 45.5962 57.2C45.5712 57.4 45.5587 57.575 45.5587 57.725C45.5587 58.55 45.9712 58.9625 46.7962 58.9625C47.8462 58.9625 48.8962 58.625 49.9462 57.95C51.0212 57.25 52.1212 56.05 53.2462 54.35C54.3712 52.625 55.5462 50.25 56.7712 47.225L56.9587 47.2625C55.8087 50.0625 54.6587 52.3875 53.5087 54.2375C52.3837 56.0875 51.1337 57.475 49.7587 58.4C48.3837 59.3 46.7587 59.75 44.8837 59.75ZM60.1421 70.25L108.63 0.499998H108.892L60.4046 70.25H60.1421ZM113.394 59.75C111.169 59.75 109.519 59.2875 108.444 58.3625C107.394 57.4375 106.869 56.225 106.869 54.725C106.869 54.075 106.919 53.4875 107.019 52.9625C107.144 52.4125 107.257 51.9625 107.357 51.6125L120.482 2.9375H113.769V2.75H128.732L114.219 56.5625C114.169 56.7625 114.132 56.975 114.107 57.2C114.082 57.4 114.069 57.575 114.069 57.725C114.069 58.55 114.482 58.9625 115.307 58.9625C116.357 58.9625 117.407 58.625 118.457 57.95C119.532 57.25 120.632 56.05 121.757 54.35C122.882 52.625 124.057 50.25 125.282 47.225L125.469 47.2625C124.319 50.0625 123.169 52.3875 122.019 54.2375C120.894 56.0875 119.644 57.475 118.269 58.4C116.894 59.3 115.269 59.75 113.394 59.75ZM139.753 59.75C137.528 59.75 135.903 59.3 134.878 58.4C133.878 57.475 133.378 56.25 133.378 54.725C133.378 54.175 133.428 53.625 133.528 53.075C133.653 52.5 133.765 52.0125 133.865 51.6125L141.403 24.6875H135.815V24.5H149.578L140.728 56.4875C140.653 56.7125 140.603 56.925 140.578 57.125C140.553 57.325 140.54 57.5125 140.54 57.6875C140.54 58.0375 140.628 58.3375 140.803 58.5875C140.978 58.8375 141.29 58.9625 141.74 58.9625C142.84 58.9625 143.915 58.625 144.965 57.95C146.015 57.25 147.103 56.05 148.228 54.35C149.353 52.65 150.54 50.275 151.79 47.225L151.94 47.2625C150.815 50.0625 149.678 52.3875 148.528 54.2375C147.403 56.0875 146.14 57.475 144.74 58.4C143.365 59.3 141.703 59.75 139.753 59.75ZM148.94 13.55C147.89 13.55 146.94 13.2875 146.09 12.7625C145.265 12.2375 144.603 11.55 144.103 10.7C143.603 9.825 143.353 8.8875 143.353 7.8875C143.353 6.8625 143.603 5.925 144.103 5.075C144.603 4.225 145.265 3.55 146.09 3.05C146.94 2.525 147.89 2.2625 148.94 2.2625C149.99 2.2625 150.94 2.525 151.79 3.05C152.665 3.55 153.353 4.225 153.853 5.075C154.353 5.925 154.603 6.8625 154.603 7.8875C154.603 8.8875 154.353 9.825 153.853 10.7C153.353 11.55 152.665 12.2375 151.79 12.7625C150.94 13.2875 149.99 13.55 148.94 13.55ZM171.604 59.75C169.179 59.75 166.954 59.4 164.929 58.7C162.929 57.975 161.317 56.95 160.092 55.625C158.892 54.3 158.292 52.7125 158.292 50.8625C158.292 49.5125 158.717 48.35 159.567 47.375C160.442 46.4 161.604 45.9125 163.054 45.9125C164.379 45.9125 165.454 46.3375 166.279 47.1875C167.129 48.0375 167.554 49.1625 167.554 50.5625C167.554 51.9875 167.092 53.075 166.167 53.825C165.267 54.55 164.204 54.9125 162.979 54.9125C162.129 54.9125 161.354 54.7625 160.654 54.4625C159.979 54.1625 159.429 53.7125 159.004 53.1125C158.579 52.4875 158.367 51.7375 158.367 50.8625H158.517C158.517 52.7375 159.117 54.325 160.317 55.625C161.517 56.9 163.079 57.875 165.004 58.55C166.929 59.2 168.967 59.525 171.117 59.525C172.492 59.525 173.854 59.2625 175.204 58.7375C176.579 58.1875 177.729 57.4 178.654 56.375C179.604 55.35 180.079 54.1 180.079 52.625C180.079 51.275 179.667 50.075 178.842 49.025C178.042 47.975 176.992 47.0125 175.692 46.1375C174.417 45.2625 173.042 44.4 171.567 43.55C170.117 42.7 168.742 41.8125 167.442 40.8875C166.167 39.9375 165.117 38.8875 164.292 37.7375C163.492 36.5625 163.092 35.2125 163.092 33.6875C163.092 31.7875 163.654 30.0875 164.779 28.5875C165.929 27.0875 167.529 25.9 169.579 25.025C171.629 24.15 174.004 23.7125 176.704 23.7125C179.279 23.7125 181.404 24.0875 183.079 24.8375C184.754 25.5625 186.004 26.4875 186.829 27.6125C187.654 28.7125 188.067 29.825 188.067 30.95C188.067 32.45 187.629 33.5875 186.754 34.3625C185.879 35.1125 184.892 35.4875 183.792 35.4875C182.592 35.4875 181.517 35.1 180.567 34.325C179.617 33.55 179.142 32.4375 179.142 30.9875C179.142 29.8125 179.554 28.825 180.379 28.025C181.204 27.2 182.267 26.7875 183.567 26.7875C184.867 26.7875 185.929 27.175 186.754 27.95C187.579 28.725 187.992 29.725 187.992 30.95H187.879C187.879 29.775 187.454 28.6625 186.604 27.6125C185.754 26.5375 184.542 25.6625 182.967 24.9875C181.392 24.3125 179.492 23.975 177.267 23.975C175.967 23.975 174.692 24.2125 173.442 24.6875C172.192 25.1625 171.154 25.85 170.329 26.75C169.529 27.625 169.129 28.7125 169.129 30.0125C169.129 31.2625 169.529 32.375 170.329 33.35C171.154 34.325 172.217 35.225 173.517 36.05C174.817 36.85 176.192 37.6625 177.642 38.4875C179.117 39.3125 180.492 40.225 181.767 41.225C183.067 42.2 184.129 43.325 184.954 44.6C185.779 45.85 186.192 47.35 186.192 49.1C186.192 51.3 185.517 53.2 184.167 54.8C182.842 56.375 181.067 57.6 178.842 58.475C176.642 59.325 174.229 59.75 171.604 59.75ZM205.104 59.75C201.679 59.75 199.217 58.675 197.717 56.525C196.217 54.35 195.467 51.3625 195.467 47.5625C195.467 44.6875 195.992 41.85 197.042 39.05C198.117 36.225 199.542 33.6625 201.317 31.3625C203.092 29.0625 205.079 27.225 207.279 25.85C209.479 24.45 211.704 23.75 213.954 23.75C215.629 23.75 216.904 24.225 217.779 25.175C218.654 26.1 219.242 27.3125 219.542 28.8125C219.867 30.2875 220.029 31.8625 220.029 33.5375C220.029 34.9375 219.879 36.55 219.579 38.375C219.279 40.2 218.829 42.1 218.229 44.075C217.654 46.025 216.942 47.9375 216.092 49.8125C215.242 51.6625 214.254 53.3375 213.129 54.8375C212.029 56.3375 210.804 57.5375 209.454 58.4375C208.129 59.3125 206.679 59.75 205.104 59.75ZM207.579 58.1375C208.829 58.1375 210.042 57.6 211.217 56.525C212.417 55.45 213.529 54.0125 214.554 52.2125C215.604 50.4125 216.517 48.425 217.292 46.25C218.092 44.075 218.717 41.875 219.167 39.65C219.617 37.425 219.842 35.3625 219.842 33.4625C219.842 31.8875 219.717 30.4875 219.467 29.2625C219.242 28.0125 218.829 27.025 218.229 26.3C217.629 25.575 216.804 25.2125 215.754 25.2125C214.629 25.2125 213.492 25.8125 212.342 27.0125C211.192 28.1875 210.092 29.7375 209.042 31.6625C207.992 33.5875 207.054 35.7 206.229 38C205.404 40.3 204.754 42.6 204.279 44.9C203.804 47.175 203.567 49.225 203.567 51.05C203.567 53.425 203.929 55.2 204.654 56.375C205.379 57.55 206.354 58.1375 207.579 58.1375ZM221.829 59.75C219.829 59.75 218.367 59.2375 217.442 58.2125C216.542 57.1875 216.092 55.8625 216.092 54.2375C216.092 53.7625 216.104 53.35 216.129 53C216.154 52.625 216.192 52.3125 216.242 52.0625L217.254 46.9625L218.942 41.2625L219.879 35.675L222.579 24.5H231.167L222.654 56.5625C222.554 56.9375 222.504 57.325 222.504 57.725C222.504 58.075 222.592 58.375 222.767 58.625C222.967 58.85 223.279 58.9625 223.704 58.9625C224.779 58.9625 225.842 58.625 226.892 57.95C227.967 57.25 229.067 56.05 230.192 54.35C231.317 52.625 232.492 50.25 233.717 47.225L233.867 47.2625C232.742 50.0625 231.604 52.3875 230.454 54.2375C229.329 56.0875 228.079 57.475 226.704 58.4C225.329 59.3 223.704 59.75 221.829 59.75ZM246.974 59.75C244.749 59.75 243.099 59.2875 242.024 58.3625C240.974 57.4375 240.449 56.225 240.449 54.725C240.449 54.075 240.499 53.4875 240.599 52.9625C240.724 52.4125 240.836 51.9625 240.936 51.6125L254.061 2.9375H247.349V2.75H262.311L247.799 56.5625C247.749 56.7625 247.711 56.975 247.686 57.2C247.661 57.4 247.649 57.575 247.649 57.725C247.649 58.55 248.061 58.9625 248.886 58.9625C249.936 58.9625 250.986 58.625 252.036 57.95C253.111 57.25 254.211 56.05 255.336 54.35C256.461 52.625 257.636 50.25 258.861 47.225L259.049 47.2625C257.899 50.0625 256.749 52.3875 255.599 54.2375C254.474 56.0875 253.224 57.475 251.849 58.4C250.474 59.3 248.849 59.75 246.974 59.75ZM278.169 59.75C275.569 59.75 273.394 59.2375 271.644 58.2125C269.919 57.1625 268.607 55.7375 267.707 53.9375C266.832 52.1125 266.394 50.05 266.394 47.75C266.394 44.75 266.944 41.825 268.044 38.975C269.144 36.125 270.682 33.55 272.657 31.25C274.657 28.95 276.982 27.125 279.632 25.775C282.282 24.425 285.144 23.75 288.219 23.75C291.419 23.75 293.907 24.4875 295.682 25.9625C297.457 27.4125 298.344 29.2125 298.344 31.3625C298.344 33.2625 297.719 34.9625 296.469 36.4625C295.244 37.9625 293.532 39.25 291.332 40.325C289.132 41.375 286.582 42.2125 283.682 42.8375C280.807 43.4625 277.719 43.875 274.419 44.075V43.925C276.419 43.8 278.282 43.4125 280.007 42.7625C281.757 42.1125 283.319 41.275 284.694 40.25C286.094 39.2 287.282 38.0125 288.257 36.6875C289.232 35.3625 289.982 33.95 290.507 32.45C291.032 30.925 291.294 29.4 291.294 27.875C291.294 26.9 291.107 26.0125 290.732 25.2125C290.382 24.3875 289.694 23.975 288.669 23.975C287.419 23.975 286.194 24.4625 284.994 25.4375C283.794 26.3875 282.644 27.675 281.544 29.3C280.469 30.925 279.469 32.75 278.544 34.775C277.644 36.775 276.857 38.8625 276.182 41.0375C275.507 43.2125 274.982 45.325 274.607 47.375C274.257 49.4 274.082 51.2375 274.082 52.8875C274.082 55.3875 274.557 57.1 275.507 58.025C276.482 58.925 277.732 59.375 279.257 59.375C281.282 59.375 283.219 58.95 285.069 58.1C286.944 57.25 288.682 56.075 290.282 54.575C291.907 53.05 293.344 51.275 294.594 49.25L294.744 49.325C293.644 51.125 292.307 52.825 290.732 54.425C289.182 56 287.357 57.2875 285.257 58.2875C283.182 59.2625 280.819 59.75 278.169 59.75ZM313.421 59.75C311.171 59.75 309.483 59.25 308.358 58.25C307.258 57.225 306.621 55.8625 306.446 54.1625C306.271 52.4625 306.433 50.55 306.933 48.425L312.633 24.6875H307.571V24.5H321.258L315.446 48.0125C314.971 49.9875 314.608 51.725 314.358 53.225C314.108 54.725 314.121 55.9 314.396 56.75C314.696 57.6 315.408 58.025 316.533 58.025C317.533 58.025 318.708 57.375 320.058 56.075C321.433 54.775 322.833 53.0125 324.258 50.7875C325.708 48.5625 327.058 46.05 328.308 43.25C329.558 40.425 330.571 37.5 331.346 34.475H331.533C331.033 36.475 330.333 38.6125 329.433 40.8875C328.558 43.1625 327.533 45.425 326.358 47.675C325.183 49.9 323.896 51.925 322.496 53.75C321.096 55.55 319.621 57 318.071 58.1C316.546 59.2 314.996 59.75 313.421 59.75ZM333.108 59.75C330.883 59.75 329.246 59.25 328.196 58.25C327.146 57.225 326.621 56.025 326.621 54.65C326.621 54.3 326.646 53.8875 326.696 53.4125C326.771 52.9125 326.858 52.4625 326.958 52.0625L333.821 24.5H342.333L333.821 56.525C333.746 56.75 333.696 56.975 333.671 57.2C333.671 57.4 333.671 57.6 333.671 57.8C333.671 58.575 334.033 58.9625 334.758 58.9625C335.858 58.9625 336.946 58.625 338.021 57.95C339.096 57.25 340.196 56.05 341.321 54.35C342.446 52.625 343.621 50.25 344.846 47.225L345.033 47.2625C343.883 50.0625 342.733 52.3875 341.583 54.2375C340.433 56.0875 339.183 57.475 337.833 58.4C336.483 59.3 334.908 59.75 333.108 59.75ZM379.478 59.75C377.478 59.75 375.953 59.2875 374.903 58.3625C373.878 57.4125 373.366 56.0875 373.366 54.3875C373.366 53.8125 373.416 53.2625 373.516 52.7375C373.641 52.2125 373.766 51.75 373.891 51.35L378.541 35.45C379.116 33.5 379.528 31.7875 379.778 30.3125C380.028 28.8125 380.003 27.6375 379.703 26.7875C379.403 25.9375 378.716 25.5125 377.641 25.5125C376.616 25.5125 375.416 26.1625 374.041 27.4625C372.691 28.7625 371.303 30.525 369.878 32.75C368.453 34.975 367.116 37.4875 365.866 40.2875C364.616 43.0875 363.591 46 362.791 49.025H362.678C363.178 47.05 363.853 44.925 364.703 42.65C365.578 40.375 366.603 38.125 367.778 35.9C368.953 33.675 370.241 31.65 371.641 29.825C373.041 28 374.503 26.5375 376.028 25.4375C377.553 24.3375 379.103 23.7875 380.678 23.7875C382.778 23.7875 384.391 24.3 385.516 25.325C386.641 26.325 387.316 27.675 387.541 29.375C387.791 31.05 387.616 32.9375 387.016 35.0375L381.053 55.8875C380.978 56.1125 380.916 56.35 380.866 56.6C380.841 56.85 380.828 57.075 380.828 57.275C380.828 57.675 380.916 58 381.091 58.25C381.266 58.5 381.578 58.625 382.028 58.625C383.853 58.625 385.566 57.7125 387.166 55.8875C388.791 54.0375 390.378 51.15 391.928 47.225L392.078 47.2625C390.928 50.2375 389.728 52.6375 388.478 54.4625C387.253 56.2875 385.916 57.625 384.466 58.475C383.016 59.325 381.353 59.75 379.478 59.75ZM351.953 59L360.466 24.6875H355.066V24.5H368.941L360.353 59H351.953ZM408.852 78.5C405.352 78.5 402.464 78.1125 400.189 77.3375C397.914 76.5625 396.239 75.4875 395.164 74.1125C394.089 72.7625 393.552 71.225 393.552 69.5C393.552 68.15 393.964 66.8875 394.789 65.7125C395.589 64.5375 396.639 63.5125 397.939 62.6375C399.264 61.7625 400.652 61.075 402.102 60.575C403.577 60.075 404.977 59.825 406.302 59.825H406.602C405.427 59.925 404.339 60.4375 403.339 61.3625C402.364 62.2875 401.577 63.4875 400.977 64.9625C400.402 66.4625 400.114 68.1125 400.114 69.9125C400.114 72.5875 400.864 74.625 402.364 76.025C403.864 77.425 406.214 78.125 409.414 78.125C412.389 78.125 415.164 77.7625 417.739 77.0375C420.314 76.3125 422.564 75.3125 424.489 74.0375C426.439 72.7875 427.952 71.3625 429.027 69.7625C430.127 68.1875 430.677 66.55 430.677 64.85C430.677 63.475 430.202 62.45 429.252 61.775C428.302 61.125 426.927 60.8 425.127 60.8C424.652 60.8 423.864 60.8 422.764 60.8C421.689 60.8 420.452 60.8 419.052 60.8C417.677 60.8 416.302 60.8 414.927 60.8C413.577 60.8 412.389 60.8 411.364 60.8C410.339 60.8 409.664 60.8 409.339 60.8C407.089 60.8 405.102 60.4875 403.377 59.8625C401.677 59.2625 400.339 58.4125 399.364 57.3125C398.389 56.2125 397.902 54.9125 397.902 53.4125C397.902 52.0875 398.277 50.9125 399.027 49.8875C399.777 48.8625 400.802 47.9875 402.102 47.2625C403.402 46.5375 404.889 45.9875 406.564 45.6125C408.264 45.2125 410.052 45.0125 411.927 45.0125V45.125C409.327 45.125 407.427 45.6375 406.227 46.6625C405.027 47.6875 404.427 48.75 404.427 49.85C404.427 50.85 404.764 51.6125 405.439 52.1375C406.139 52.6625 407.039 53.025 408.139 53.225C409.264 53.425 410.427 53.525 411.627 53.525C412.502 53.525 413.564 53.525 414.814 53.525C416.089 53.5 417.339 53.4875 418.564 53.4875C419.789 53.4625 420.752 53.45 421.452 53.45C424.452 53.45 426.927 54.1 428.877 55.4C430.852 56.675 431.839 58.925 431.839 62.15C431.839 64.875 431.164 67.2625 429.814 69.3125C428.464 71.3625 426.664 73.0625 424.414 74.4125C422.164 75.7875 419.677 76.8125 416.952 77.4875C414.252 78.1625 411.552 78.5 408.852 78.5ZM417.027 47C414.752 47 412.702 46.5875 410.877 45.7625C409.077 44.9375 407.652 43.7625 406.602 42.2375C405.577 40.7125 405.064 38.8875 405.064 36.7625C405.064 34.3625 405.789 32.1875 407.239 30.2375C408.689 28.2625 410.614 26.7 413.014 25.55C415.414 24.375 418.002 23.7875 420.777 23.7875C423.077 23.7875 425.127 24.225 426.927 25.1C428.727 25.975 430.139 27.2125 431.164 28.8125C432.214 30.3875 432.739 32.2375 432.739 34.3625C432.739 36.7375 432.014 38.8875 430.564 40.8125C429.114 42.7125 427.202 44.225 424.827 45.35C422.452 46.45 419.852 47 417.027 47ZM415.827 46.7C416.652 46.7 417.514 46.2625 418.414 45.3875C419.339 44.4875 420.214 43.325 421.039 41.9C421.889 40.475 422.652 38.9375 423.327 37.2875C424.002 35.6375 424.527 34.0375 424.902 32.4875C425.302 30.9375 425.502 29.6125 425.502 28.5125C425.502 27.2625 425.227 26.2125 424.677 25.3625C424.127 24.5125 423.239 24.0875 422.014 24.0875C421.164 24.0875 420.277 24.5375 419.352 25.4375C418.452 26.3125 417.577 27.4625 416.727 28.8875C415.902 30.2875 415.152 31.8125 414.477 33.4625C413.802 35.1125 413.264 36.7125 412.864 38.2625C412.489 39.8125 412.302 41.125 412.302 42.2C412.302 43.475 412.577 44.55 413.127 45.425C413.702 46.275 414.602 46.7 415.827 46.7ZM437.202 24.125C438.752 24.125 440.077 24.625 441.177 25.625C442.277 26.6 442.827 27.9625 442.827 29.7125C442.827 30.9625 442.452 32.0375 441.702 32.9375C440.952 33.8125 439.914 34.25 438.589 34.25C437.514 34.25 436.552 33.8875 435.702 33.1625C434.877 32.4125 434.464 31.425 434.464 30.2C434.464 28.925 434.889 27.925 435.739 27.2C436.589 26.475 437.577 26.1125 438.702 26.1125C439.527 26.1125 440.302 26.325 441.027 26.75C441.777 27.175 442.277 27.7875 442.527 28.5875C442.302 27.2625 441.689 26.225 440.689 25.475C439.714 24.7 438.539 24.3125 437.164 24.3125C435.889 24.3125 434.714 24.6125 433.639 25.2125C432.589 25.7875 431.589 26.675 430.639 27.875C429.714 29.075 428.789 30.6125 427.864 32.4875L427.714 32.4125C429.039 29.6375 430.439 27.5625 431.914 26.1875C433.389 24.8125 435.152 24.125 437.202 24.125Z" fill="#040E15"/>
</svg>
